<svg width="960" height="640" viewBox="0 0 960 640" fill="none" xmlns="http://www.w3.org/2000/svg">
  <rect width="960" height="640" rx="32" fill="#F5FAF8"/>
  <rect x="70" y="72" width="820" height="496" rx="28" fill="white" stroke="#D9E6DE" stroke-width="2"/>
  <path d="M344 128V526" stroke="#D9E6DE" stroke-width="6" stroke-dasharray="16 18"/>
  <circle cx="436" cy="172" r="50" fill="#D8F0E5" stroke="#0F7A55" stroke-width="6"/>
  <path d="M390 214C354 270 334 332 323 430" stroke="#17211B" stroke-width="20" stroke-linecap="round"/>
  <path d="M344 252C414 256 462 290 500 340" stroke="#315941" stroke-width="18" stroke-linecap="round"/>
  <path d="M318 430L270 520" stroke="#17211B" stroke-width="18" stroke-linecap="round"/>
  <path d="M318 430L382 520" stroke="#17211B" stroke-width="18" stroke-linecap="round"/>
  <path d="M350 172H436" stroke="#E0593E" stroke-width="8" stroke-linecap="round"/>
  <path d="M410 142L436 172L404 196" stroke="#E0593E" stroke-width="8" stroke-linecap="round" stroke-linejoin="round"/>
  <rect x="560" y="172" width="220" height="26" rx="13" fill="#0F7A55"/>
  <rect x="560" y="226" width="270" height="20" rx="10" fill="#D8F0E5"/>
  <rect x="560" y="270" width="230" height="20" rx="10" fill="#D8F0E5"/>
</svg>
