<svg width="960" height="640" viewBox="0 0 960 640" fill="none" xmlns="http://www.w3.org/2000/svg">
  <rect width="960" height="640" rx="32" fill="#F5FAF8"/>
  <rect x="70" y="72" width="820" height="496" rx="28" fill="white" stroke="#D9E6DE" stroke-width="2"/>
  <circle cx="320" cy="142" r="42" fill="#D8F0E5" stroke="#0F7A55" stroke-width="6"/>
  <path d="M316 188C316 266 306 334 278 426" stroke="#17211B" stroke-width="20" stroke-linecap="round"/>
  <path d="M298 260C370 260 424 292 460 344" stroke="#315941" stroke-width="18" stroke-linecap="round"/>
  <ellipse cx="320" cy="354" rx="92" ry="54" transform="rotate(-14 320 354)" fill="#D8F0E5" stroke="#0F7A55" stroke-width="8"/>
  <path d="M248 360L402 322" stroke="#E0593E" stroke-width="8" stroke-linecap="round"/>
  <path d="M374 304L402 322L382 352" stroke="#E0593E" stroke-width="8" stroke-linecap="round" stroke-linejoin="round"/>
  <path d="M278 426L230 520" stroke="#17211B" stroke-width="18" stroke-linecap="round"/>
  <path d="M278 426L356 520" stroke="#17211B" stroke-width="18" stroke-linecap="round"/>
  <rect x="560" y="172" width="240" height="26" rx="13" fill="#0F7A55"/>
  <rect x="560" y="226" width="286" height="20" rx="10" fill="#D8F0E5"/>
  <rect x="560" y="270" width="210" height="20" rx="10" fill="#D8F0E5"/>
</svg>
