<svg width="960" height="640" viewBox="0 0 960 640" fill="none" xmlns="http://www.w3.org/2000/svg">
  <rect width="960" height="640" rx="32" fill="#F3FBF7"/>
  <rect x="70" y="72" width="820" height="496" rx="28" fill="white" stroke="#D9E6DE" stroke-width="2"/>
  <circle cx="330" cy="156" r="44" fill="#D8F0E5" stroke="#0F7A55" stroke-width="6"/>
  <path d="M318 202C326 282 310 350 270 438" stroke="#17211B" stroke-width="20" stroke-linecap="round"/>
  <path d="M300 250C398 244 472 290 520 368" stroke="#315941" stroke-width="18" stroke-linecap="round"/>
  <path d="M282 280C226 300 194 340 180 392" stroke="#0F7A55" stroke-width="16" stroke-linecap="round"/>
  <path d="M270 438L222 520" stroke="#17211B" stroke-width="18" stroke-linecap="round"/>
  <path d="M270 438L334 520" stroke="#17211B" stroke-width="18" stroke-linecap="round"/>
  <path d="M220 292C298 246 416 254 496 346" stroke="#E0593E" stroke-width="8" stroke-linecap="round" stroke-dasharray="18 16"/>
  <rect x="570" y="168" width="230" height="26" rx="13" fill="#0F7A55"/>
  <rect x="570" y="226" width="280" height="20" rx="10" fill="#D8F0E5"/>
  <rect x="570" y="270" width="235" height="20" rx="10" fill="#D8F0E5"/>
</svg>
